<?xml version="1.0" encoding="UTF-8"?>
<svg version="1.1" xmlns="http://www.w3.org/2000/svg" width="303" height="114">
<path d="M0 0 C2.4296875 0.3828125 2.4296875 0.3828125 5 1 C6.125 2.875 6.125 2.875 7 5 C7.46849365 5.41330566 7.9369873 5.82661133 8.41967773 6.25244141 C15.29074545 13.85063432 14.60058207 27.71294161 14.46655273 37.35058594 C14.43743238 39.63029344 14.44603087 41.90768293 14.45898438 44.1875 C14.43843308 59.91371452 11.0209336 76.99832119 -0.19921875 88.9140625 C-4.18799193 91.31943982 -8.58559641 90.93433696 -13 90 C-18.19029741 86.53980173 -20.97197412 80.35887742 -24 75 C-24.12375 75.94101563 -24.2475 76.88203125 -24.375 77.8515625 C-26.04257212 87.91952918 -26.04257212 87.91952918 -28.9453125 91.1953125 C-31.125 92.75 -31.125 92.75 -33.2578125 93.984375 C-35.17165459 94.88707356 -35.17165459 94.88707356 -36 97 C-38.375 97.1875 -38.375 97.1875 -41 97 C-43 94 -43 94 -43 91 C-43.598125 90.79375 -44.19625 90.5875 -44.8125 90.375 C-47.81193999 88.48963772 -48.57900137 86.18033026 -50 83 C-50.33 82.67 -50.66 82.34 -51 82 C-51.53728976 75.06126125 -50.64289817 68.27667166 -49.5625 61.4375 C-49.29159115 59.66557466 -49.02204721 57.89344006 -48.75390625 56.12109375 C-48.62516113 55.27272949 -48.49641602 54.42436523 -48.36376953 53.55029297 C-47.81583535 49.70886982 -47.4035379 45.859076 -47 42 C-50.38994416 54.33723296 -52.75781161 65.73908237 -51.63867188 78.58837891 C-51.34551308 83.77435796 -51.85438193 86.46004086 -55.2890625 90.4765625 C-59.60178701 94.88987534 -63.47018257 97.57121738 -69.6875 98.625 C-73 98 -73 98 -75.4375 95 C-75.953125 94.01 -76.46875 93.02 -77 92 C-77.69738281 92.16371094 -78.39476562 92.32742187 -79.11328125 92.49609375 C-82.20152331 93.03517795 -85.05497079 93.09752207 -88.1875 93.0625 C-89.75564453 93.04896484 -89.75564453 93.04896484 -91.35546875 93.03515625 C-92.66451172 93.01775391 -92.66451172 93.01775391 -94 93 C-94.66 93 -95.32 93 -96 93 C-95.175 93.99 -94.35 94.98 -93.5 96 C-90.48608707 100.22975281 -90.33893667 102.8767592 -91 108 C-92.125 110.9375 -92.125 110.9375 -94 113 C-98.84263908 114.65089969 -102.25165457 113.56255457 -107 112 C-109.01751745 110.98988359 -110.99597123 109.89942501 -112.9375 108.75 C-113.50452637 108.41718018 -114.07155273 108.08436035 -114.65576172 107.74145508 C-115.97872348 106.96475619 -117.29987363 106.18496692 -118.61962891 105.40283203 C-121.43926994 103.74112358 -124.27191519 102.10271336 -127.10546875 100.46484375 C-129.27879012 99.20597822 -131.45196654 97.94686244 -133.625 96.6875 C-134.68066162 96.07680664 -135.73632324 95.46611328 -136.82397461 94.83691406 C-137.82307861 94.25522461 -138.82218262 93.67353516 -139.8515625 93.07421875 C-140.74697754 92.55432373 -141.64239258 92.03442871 -142.56494141 91.4987793 C-144.81986618 90.11087242 -146.91281957 88.62656758 -149 87 C-149.0825 87.70125 -149.165 88.4025 -149.25 89.125 C-150.24081044 92.9231067 -151.30911444 95.10729802 -154 98 C-158.16968876 98.95044376 -161.73024521 98.61939258 -165.5625 96.75 C-167 95 -167 95 -167 91 C-167.64364502 90.79060791 -168.28729004 90.58121582 -168.95043945 90.36547852 C-171 89 -171 89 -171.62182617 86.40209961 C-171.67830322 85.32968018 -171.73478027 84.25726074 -171.79296875 83.15234375 C-171.86580078 81.99025391 -171.93863281 80.82816406 -172.01367188 79.63085938 C-172.07103516 78.41205078 -172.12839844 77.19324219 -172.1875 75.9375 C-172.32330894 73.52974714 -172.46244551 71.12217885 -172.60546875 68.71484375 C-172.65856201 67.64355225 -172.71165527 66.57226074 -172.76635742 65.46850586 C-172.72999343 63.05756286 -172.72999343 63.05756286 -174 62 C-174.1959375 62.969375 -174.391875 63.93875 -174.59375 64.9375 C-177.16053704 76.73670382 -181.29141363 88.49034205 -189 98 C-190.65 97.67 -192.3 97.34 -194 97 C-194.4021875 95.5459375 -194.4021875 95.5459375 -194.8125 94.0625 C-195.204375 93.051875 -195.59625 92.04125 -196 91 C-197.485 90.505 -197.485 90.505 -199 90 C-200.09765625 87.85546875 -200.09765625 87.85546875 -201.0625 85.1875 C-202.22776964 82.01927693 -203.43105022 78.99146424 -205 76 C-205.20753906 76.85722656 -205.41507812 77.71445313 -205.62890625 78.59765625 C-207.57567563 85.82269574 -209.38902741 91.88074475 -216 96 C-219.89043809 96.87336365 -221.45465875 96.27267063 -225 94.5 C-229.86181223 90.4484898 -233.55922645 87.24780511 -234.4453125 80.71875 C-234.59761828 70.71008414 -233.26635719 61.88234602 -228.8046875 52.91015625 C-227.80588725 50.88467317 -227.80588725 50.88467317 -228 48 C-228.37511719 49.03898437 -228.75023437 50.07796875 -229.13671875 51.1484375 C-231.70372802 58.17669108 -234.28536988 65.07375422 -237.79296875 71.69921875 C-238.6343335 73.30298521 -239.42522961 74.93380987 -240.17578125 76.58203125 C-244.6349142 86.27011489 -250.31134578 91.37719622 -260 95.89453125 C-264.17483917 97.432916 -267.64019014 98.00544323 -272 97 C-277.52818799 94.28805872 -280.68235515 90.52393391 -282.83984375 84.75390625 C-283.34425117 83.22562705 -283.82909699 81.6906748 -284.2890625 80.1484375 C-284.91463244 78.00993509 -284.91463244 78.00993509 -286.00537109 76.27490234 C-290.42775919 66.16007361 -288.08973521 50.6335988 -288 39.75 C-287.9730501 36.45312873 -287.95174668 33.156326 -287.9375 29.859375 C-287.92960701 28.68850845 -287.92960701 28.68850845 -287.92155457 27.49398804 C-287.91609403 23.12772421 -288.17523286 18.92389571 -288.73828125 14.5859375 C-289.20197638 10.32814928 -289.20197638 10.32814928 -287.41796875 7.4296875 C-286.68191406 6.91664063 -285.94585937 6.40359375 -285.1875 5.875 C-284.45917969 5.33617187 -283.73085938 4.79734375 -282.98046875 4.2421875 C-279.04133527 1.7714884 -275.58954148 1.36553915 -271 2 C-268.42183623 3.10769138 -266.35109248 4.43260501 -264 6 C-264 7.32 -264 8.64 -264 10 C-263.360625 10.28875 -262.72125 10.5775 -262.0625 10.875 C-260 12 -260 12 -259 14 C-259.09274092 16.51297982 -259.24348406 18.99454237 -259.4375 21.5 C-260.07317951 30.67507369 -260.09676608 39.80722195 -260 49 C-259.46890625 48.26394531 -258.9378125 47.52789062 -258.390625 46.76953125 C-257.68421875 45.79371094 -256.9778125 44.81789062 -256.25 43.8125 C-255.55390625 42.84957031 -254.8578125 41.88664062 -254.140625 40.89453125 C-252.79659293 39.07714482 -251.41927802 37.28343662 -249.99609375 35.52734375 C-247.76248439 32.69927084 -245.78977817 29.76228869 -243.8125 26.75 C-240.09608541 21.09608541 -240.09608541 21.09608541 -239 20 C-235.5625 19.8125 -235.5625 19.8125 -232 20 C-230 22 -230 22 -230 26 C-228.68 26.33 -227.36 26.66 -226 27 C-226 31.29 -226 35.58 -226 40 C-224.68 38.35 -223.36 36.7 -222 35 C-221.34 34.67 -220.68 34.34 -220 34 C-219.01728465 31.32121268 -218.11858315 28.65281582 -217.25 25.9375 C-213.6874494 15.45596411 -209.51924423 9.689249 -200.46484375 3.15234375 C-197.44087142 1.73860074 -196.12091 1.93381848 -193 3 C-190.375 4.9375 -190.375 4.9375 -188 7 C-187.01 7.66 -186.02 8.32 -185 9 C-184.7834375 9.9590625 -184.7834375 9.9590625 -184.5625 10.9375 C-184.19895007 13.20311706 -184.19895007 13.20311706 -181.9375 14.25 C-180.9784375 15.11625 -180.9784375 15.11625 -180 16 C-180 17.88449293 -180.0142345 19.77045551 -180.11328125 21.65234375 C-179.97870202 24.44138232 -179.21889076 26.47050301 -178.1875 29.0625 C-175.49209613 35.87295105 -174.28086022 42.8097165 -173 50 C-171.531636 45.31468586 -170.9260259 42.09715282 -171.6953125 37.21875 C-172.95926816 28.01456004 -172.55356534 17.53654254 -167.41796875 9.53515625 C-163.69812381 5.053513 -160.47985796 2.47959581 -154.5625 1.6640625 C-142.53928556 1.48078179 -130.46918129 5.47160959 -121 13 C-119.76171875 15.63671875 -119.76171875 15.63671875 -119 18 C-118.505 18.45375 -118.01 18.9075 -117.5 19.375 C-113.90143222 23.27344843 -113.80017779 28.2669892 -114 33.3125 C-115.15656695 42.90674853 -120.61082201 49.20959669 -127.75390625 55.30859375 C-133.98383372 60 -133.98383372 60 -137 60 C-129.67980951 67.64139978 -120.53029355 73.03351878 -111.45703125 78.3359375 C-110.64621094 78.88507813 -109.83539063 79.43421875 -109 80 C-109 80.66 -109 81.32 -109 82 C-107.68 82.33 -106.36 82.66 -105 83 C-105.40992188 82.41992188 -105.81984375 81.83984375 -106.2421875 81.2421875 C-106.78101563 80.46101563 -107.31984375 79.67984375 -107.875 78.875 C-108.40867188 78.10929687 -108.94234375 77.34359375 -109.4921875 76.5546875 C-112.67072852 71.1692838 -113.31703465 66.07580841 -113.3359375 59.91796875 C-113.3459227 58.75930046 -113.3459227 58.75930046 -113.35610962 57.57722473 C-113.36620275 55.94253907 -113.37092768 54.30781249 -113.37060547 52.6730957 C-113.37492045 50.23249369 -113.41110878 47.7937912 -113.44921875 45.35351562 C-113.50852313 37.25785172 -113.04103783 29.58469779 -111.2265625 21.67578125 C-111.07109955 20.98937057 -110.9156366 20.3029599 -110.75546265 19.5957489 C-109.22694556 13.62286647 -106.09674875 7.64053482 -101 4 C-96.97333008 4 -94.64972476 4.58653879 -91.25 6.75 C-87.04190684 10.95809316 -85.39209744 15.43388183 -83.6484375 21.01171875 C-83.04032829 23.04255198 -83.04032829 23.04255198 -82 25 C-81.76725791 27.87910588 -81.58027243 30.74146495 -81.4375 33.625 C-81.39431641 34.42679688 -81.35113281 35.22859375 -81.30664062 36.0546875 C-81.20048543 38.0362511 -81.09973145 40.01810271 -81 42 C-80.7666394 41.1478894 -80.7666394 41.1478894 -80.52856445 40.27856445 C-71.48897597 7.46071164 -71.48897597 7.46071164 -64 2 C-61.125 1.625 -61.125 1.625 -59 2 C-59 2.66 -59 3.32 -59 4 C-57.989375 4 -56.97875 4 -55.9375 4 C-51.30698082 4.62116721 -49.2930207 7.50385075 -46.48046875 10.9921875 C-43.69392172 14.77130405 -42.61931351 17.35514866 -42 22 C-41.55269531 21.44570313 -41.10539063 20.89140625 -40.64453125 20.3203125 C-34.29900103 12.71650017 -34.29900103 12.71650017 -30 12 C-24.81724623 12.03796889 -20.03123205 12.47267195 -16 16 C-15.1875 18.6875 -15.1875 18.6875 -15 21 C-14.01 21.33 -13.02 21.66 -12 22 C-12.0825 21.13375 -12.165 20.2675 -12.25 19.375 C-11.94359083 15.2384762 -10.49349221 13.13741603 -8 10 C-7.32453125 9.14148437 -6.6490625 8.28296875 -5.953125 7.3984375 C-3.98395697 4.9195203 -1.99890381 2.45496439 0 0 Z M-44 29 C-43 32 -43 32 -43 32 Z M-45 33 C-44 36 -44 36 -44 36 Z M-46 36 C-45 38 -45 38 -45 38 Z " fill="#060606" transform="translate(289,0)"/>
<path d="M0 0 C7.80236744 1.69115353 15.83764562 4.81914965 22 10 C23.625 13.375 23.625 13.375 24 17 C24.144375 18.258125 24.28875 19.51625 24.4375 20.8125 C24.14953756 28.66326554 19.80335533 34.60514812 14.25 39.8125 C9.82591117 43.55902567 5.21877987 46.49145605 0 49 C3.24652143 54.64452022 6.1116234 58.71396543 11.97265625 61.734375 C14 63 14 63 16.328125 65.41015625 C19.25957392 68.25160454 22.06801806 69.81898804 25.6875 71.6875 C32.62080287 75.428819 37.70014372 80.1642032 43 86 C43.7425 86.69609375 44.485 87.3921875 45.25 88.109375 C47 90 47 90 47.375 93 C47.01553225 95.87574204 46.34974886 97.49486612 45 100 C38.86052552 99.86411626 34.58059341 99.35899345 29.79980469 95.37475586 C27.50238393 93.61990286 24.98443108 92.45731038 22.39453125 91.19360352 C17.62266353 88.81496758 12.97297053 86.21315638 8.3125 83.625 C7.29349609 83.07328125 6.27449219 82.5215625 5.22460938 81.953125 C-0.2957013 78.87705914 -4.38020908 76.22070063 -8 71 C-10.17969518 73.90954155 -10.17969518 73.90954155 -10.875 77.4375 C-12.05229421 81.16559834 -12.75734554 82.83823036 -16 85 C-19.6985004 84.85205998 -21.35805573 84.64194427 -24 82 C-24.28710938 79.64916992 -24.28710938 79.64916992 -24.34375 76.73046875 C-24.37339844 75.67666016 -24.40304688 74.62285156 -24.43359375 73.53710938 C-24.45550781 72.43173828 -24.47742188 71.32636719 -24.5 70.1875 C-24.54354414 68.01413505 -24.59533861 65.84091631 -24.65625 63.66796875 C-24.68428711 62.21813599 -24.68428711 62.21813599 -24.71289062 60.73901367 C-25.0168977 57.8387965 -25.89407975 55.67983768 -27 53 C-26.74257786 49.91093435 -26.21990603 47.49358978 -24.95874023 44.6628418 C-23.8889218 41.69148716 -23.81299928 39.54088172 -23.91015625 36.39453125 C-23.93013672 35.32783203 -23.95011719 34.26113281 -23.97070312 33.16210938 C-24.03136924 30.94844163 -24.0963952 28.7348886 -24.16601562 26.52148438 C-24.30955908 18.28011019 -23.95065128 10.54078154 -18.5 4 C-12.38373883 -0.89300893 -7.6519141 -0.67417745 0 0 Z " fill="#FF8F04" transform="translate(144,5)"/>
<path d="M0 0 C0 0.66 0 1.32 0 2 C1.051875 2.061875 2.10375 2.12375 3.1875 2.1875 C7 3 7 3 10 4.8125 C13.2028 9.9169625 12.15347075 14.25155559 11 20 C9.38304112 26.38499624 7.38285266 32.68074615 5.375 38.95214844 C2.5254788 47.99281684 1.93242729 55.53933184 2.3125 65 C2.63934044 74.83456551 2.63934044 74.83456551 0.2578125 79.17578125 C-3.89230712 82.9975244 -8.47016402 85.05875132 -14 86 C-15.65 83.69 -17.3 81.38 -19 79 C-19.69222656 79.15855469 -20.38445312 79.31710938 -21.09765625 79.48046875 C-27.57878804 80.64061751 -34.3875949 81.11960218 -40.5 78.5 C-47.01839876 71.98160124 -49.1527995 65.85009964 -49.23828125 56.73828125 C-49.246353 55.91482712 -49.25442474 55.09137299 -49.26274109 54.2429657 C-49.27658157 52.49199522 -49.28730389 50.74099776 -49.29516602 48.98999023 C-49.30657186 47.22818904 -49.32683767 45.46641918 -49.35668945 43.70483398 C-49.59117366 29.85192609 -49.79084675 14.23503191 -40.171875 3.1875 C-39.78515625 2.795625 -39.3984375 2.40375 -39 2 C-33.25 3.75 -33.25 3.75 -31 6 C-26.89192571 14.81008702 -27.73085946 23.87701543 -27.9375 33.375 C-27.9853939 35.85152397 -28.02865617 38.32780121 -28.05970764 40.80459595 C-28.07941442 42.33729418 -28.10898657 43.86990552 -28.14964294 45.40219116 C-28.20337434 49.18022609 -28.15388248 50.76917628 -26 54 C-25.01 54 -24.02 54 -23 54 C-22.81824219 53.443125 -22.63648438 52.88625 -22.44921875 52.3125 C-22.19785156 51.549375 -21.94648438 50.78625 -21.6875 50 C-21.44386719 49.2575 -21.20023438 48.515 -20.94921875 47.75 C-20.1917933 45.55564808 -19.38433075 43.40217697 -18.546875 41.23828125 C-16.93069674 36.95623676 -15.73130989 32.60887825 -14.5625 28.1875 C-6.90420603 0 -6.90420603 0 0 0 Z " fill="#FF8C04" transform="translate(228,4)"/>
<path d="M0 0 C0.99 0.33 1.98 0.66 3 1 C6.81291275 9.5419214 6.49641851 19.40307822 6.44604492 28.57202148 C6.43752326 30.93106196 6.46641963 33.28768053 6.49804688 35.64648438 C6.56361661 49.66352945 3.36775851 60.95654859 -4 73 C-4.5775 74.051875 -5.155 75.10375 -5.75 76.1875 C-8.94424238 78.7606397 -11.56511797 78.88896703 -15.6015625 78.6640625 C-18.46999396 77.86987138 -19.21386628 77.16181844 -20.8125 74.6875 C-21.59022666 73.14859405 -22.31483438 71.58228896 -23 70 C-23.44085938 69.02804688 -23.88171875 68.05609375 -24.3359375 67.0546875 C-25.20938563 65.12098441 -26.06128876 63.17733899 -26.88671875 61.22265625 C-27.79632786 58.85207038 -27.79632786 58.85207038 -30 58 C-31.71283936 63.26412631 -33.06018344 68.24019552 -33.6875 73.75 C-34.39883219 78.11077561 -35.48258343 79.99398281 -39 82.6875 C-42.54366197 85 -42.54366197 85 -45 85 C-48.73339876 81.09690129 -50.00724941 78.7307957 -49.984375 73.26953125 C-49.61600625 69.39492096 -49.02166556 65.55657982 -48.41015625 61.71386719 C-47.96292493 58.75468662 -47.59978281 55.79254588 -47.25 52.8203125 C-47.00023414 50.73434695 -46.75023703 48.64840908 -46.5 46.5625 C-46.32307617 45.0609436 -46.32307617 45.0609436 -46.14257812 43.52905273 C-45.9637207 42.12441772 -45.9637207 42.12441772 -45.78125 40.69140625 C-45.67876953 39.85810791 -45.57628906 39.02480957 -45.47070312 38.16625977 C-45 36 -45 36 -43 33 C-42.64950432 31.07227376 -42.3647131 29.13211136 -42.125 27.1875 C-41.14552842 20.85154325 -39.56882921 17.85425468 -35.3125 13.125 C-31.68330304 11.35944472 -27.95182443 11.32025954 -24 12 C-21.21875 13.0859375 -21.21875 13.0859375 -19 15 C-18.65234375 18.1875 -18.65234375 18.1875 -18.9375 22 C-19.28918551 29.08973862 -17.99000952 34.57948849 -15 41 C-14.3381938 38.77448427 -13.69223595 36.54716917 -13.0625 34.3125 C-12.86994629 33.63203613 -12.67739258 32.95157227 -12.47900391 32.25048828 C-11.30341483 27.85405114 -10.85818719 23.95368756 -10.875 19.375 C-10.53608324 11.10748501 -5.3043589 5.88196604 0 0 Z " fill="#FF8B04" transform="translate(290,3)"/>
<path d="M0 0 C2.05460188 0.82430135 3.84566553 1.70901854 5.70703125 2.91015625 C6.62742187 3.47089844 6.62742187 3.47089844 7.56640625 4.04296875 C9.71969875 6.74063295 9.00270502 9.40178407 8.95703125 12.78515625 C9.97276713 16.35217001 9.97276713 16.35217001 11.39453125 19.84765625 C17.14660117 34.67849179 16.50021341 51.89425844 10.95703125 66.78515625 C8.33166048 72.65609235 5.20488874 78.24020297 1.95703125 83.78515625 C1.29703125 83.78515625 0.63703125 83.78515625 -0.04296875 83.78515625 C-5.68197723 74.68218541 -6.12019167 67.17127084 -4.04296875 56.78515625 C-7.67296875 57.44515625 -11.30296875 58.10515625 -15.04296875 58.78515625 C-15.35427734 60.3784375 -15.35427734 60.3784375 -15.671875 62.00390625 C-17.47712286 70.51148859 -19.16142702 76.90878354 -26.04296875 82.78515625 C-30.47297133 81.57697373 -33.26300752 80.50380568 -36.04296875 76.78515625 C-36.34229921 73.95678887 -36.39182312 71.70164198 -36.16796875 68.91015625 C-36.11842041 68.16072754 -36.06887207 67.41129883 -36.01782227 66.63916016 C-35.40663049 60.02316667 -33.36478994 54.8506252 -30.3203125 48.93359375 C-28.85653851 45.32563708 -28.87718345 42.64426966 -29.04296875 38.78515625 C-28.35546875 36.03515625 -28.35546875 36.03515625 -27.04296875 33.78515625 C-26.25277344 33.41261719 -25.46257812 33.04007813 -24.6484375 32.65625 C-20.90348748 29.96684811 -20.32715962 26.89682405 -19.04296875 22.59765625 C-15.82140042 12.80568957 -13.02493829 6.58941669 -4.2265625 0.71875 C-2.04296875 -0.21484375 -2.04296875 -0.21484375 0 0 Z " fill="#FF8E04" transform="translate(93.04296875,5.21484375)"/>
<path d="M0 0 C3 0.8125 3 0.8125 5 3 C5.60852733 7.47904415 5.45465983 11.91031769 4.4934082 16.32836914 C3.59434695 21.19646774 3.81540223 26.12580092 3.8125 31.0625 C3.79413086 32.66641602 3.79413086 32.66641602 3.77539062 34.30273438 C3.76193946 41.72329117 4.55527219 48.72397424 6 56 C10.52445246 49.81055442 15.0094326 43.60281385 19.359375 37.2890625 C20.51452047 35.67735954 21.72643068 34.10560017 22.9765625 32.56640625 C25.06850824 29.91310828 26.84656421 27.18385118 28.625 24.3125 C31.78291815 19.21708185 31.78291815 19.21708185 34 17 C36.125 17.375 36.125 17.375 38 18 C39.21378685 32.32942804 33.47414922 44.76719559 27.6875 57.5 C27.41354401 58.11413757 27.13958801 58.72827515 26.85733032 59.36102295 C21.59103583 71.08699995 16.13372346 78.26393375 4 83 C-0.03483181 84.07595515 -2.22005889 84.19498528 -6.25 83.1875 C-10.37052706 79.90980802 -10.8172559 75.96071806 -12 71 C-12.33 70.34 -12.66 69.68 -13 69 C-14.43929396 55.91700601 -14.31358441 42.64179523 -14.55224609 29.49755859 C-14.60402301 26.71443081 -14.66115718 23.93145007 -14.71875 21.1484375 C-14.73232544 20.30260101 -14.74590088 19.45676453 -14.7598877 18.58529663 C-14.82945168 15.28934672 -14.927061 12.32178652 -15.65820312 9.09619141 C-15.77099609 8.40444824 -15.88378906 7.71270508 -16 7 C-11.26643132 1.34601519 -7.35594597 -0.83004838 0 0 Z " fill="#FFA104" transform="translate(18,5)"/>
<path d="M0 0 C7.80236744 1.69115353 15.83764562 4.81914965 22 10 C23.625 13.375 23.625 13.375 24 17 C24.144375 18.258125 24.28875 19.51625 24.4375 20.8125 C24.14953756 28.66326554 19.80335533 34.60514812 14.25 39.8125 C9.82591117 43.55902567 5.21877987 46.49145605 0 49 C3.24652143 54.64452022 6.1116234 58.71396543 11.97265625 61.734375 C14 63 14 63 16.328125 65.41015625 C19.25957392 68.25160454 22.06801806 69.81898804 25.6875 71.6875 C32.62080287 75.428819 37.70014372 80.1642032 43 86 C43.7425 86.69609375 44.485 87.3921875 45.25 88.109375 C47 90 47 90 47.375 93 C47.01553225 95.87574204 46.34974886 97.49486612 45 100 C38.86052552 99.86411626 34.58059341 99.35899345 29.79980469 95.37475586 C27.50238393 93.61990286 24.98443108 92.45731038 22.39453125 91.19360352 C17.62266353 88.81496758 12.97297053 86.21315638 8.3125 83.625 C7.29349609 83.07328125 6.27449219 82.5215625 5.22460938 81.953125 C-0.2957013 78.87705914 -4.38020908 76.22070063 -8 71 C-10.17969518 73.90954155 -10.17969518 73.90954155 -10.875 77.4375 C-12.05229421 81.16559834 -12.75734554 82.83823036 -16 85 C-19.6985004 84.85205998 -21.35805573 84.64194427 -24 82 C-24.28710938 79.64916992 -24.28710938 79.64916992 -24.34375 76.73046875 C-24.37339844 75.67666016 -24.40304688 74.62285156 -24.43359375 73.53710938 C-24.45550781 72.43173828 -24.47742188 71.32636719 -24.5 70.1875 C-24.54354414 68.01413505 -24.59533861 65.84091631 -24.65625 63.66796875 C-24.68428711 62.21813599 -24.68428711 62.21813599 -24.71289062 60.73901367 C-25.0168977 57.8387965 -25.89407975 55.67983768 -27 53 C-26.74257786 49.91093435 -26.21990603 47.49358978 -24.95874023 44.6628418 C-23.8889218 41.69148716 -23.81299928 39.54088172 -23.91015625 36.39453125 C-23.93013672 35.32783203 -23.95011719 34.26113281 -23.97070312 33.16210938 C-24.03136924 30.94844163 -24.0963952 28.7348886 -24.16601562 26.52148438 C-24.30955908 18.28011019 -23.95065128 10.54078154 -18.5 4 C-12.38373883 -0.89300893 -7.6519141 -0.67417745 0 0 Z M-17.5625 5.90625 C-22.73566565 13.44107823 -22.28660706 20.74933294 -22 29.5625 C-21.5536001 43.33393703 -21.5536001 43.33393703 -25 50 C-24.88296239 53.84760338 -24.88296239 53.84760338 -23 57 C-22.85447268 58.76733176 -22.77277531 60.54000994 -22.71875 62.3125 C-22.68136719 63.38757813 -22.64398438 64.46265625 -22.60546875 65.5703125 C-22.53515625 67.85677083 -22.46484375 70.14322917 -22.39453125 72.4296875 C-22.35714844 73.50476563 -22.31976563 74.57984375 -22.28125 75.6875 C-22.25095703 76.68136719 -22.22066406 77.67523438 -22.18945312 78.69921875 C-22.25272441 80.96283986 -22.25272441 80.96283986 -21 82 C-18.58462162 82.41717279 -18.58462162 82.41717279 -16 82 C-13.06174572 78.9291929 -12.24473912 75.83409518 -11.3125 71.75 C-11.06113281 70.67234375 -10.80976563 69.5946875 -10.55078125 68.484375 C-10.36902344 67.66453125 -10.18726563 66.8446875 -10 66 C-8.02551214 67.87056745 -6.43191755 69.74318316 -4.76953125 71.91796875 C-1.90297229 75.38284043 1.36539217 77.25202666 5.3125 79.3125 C6.73321975 80.08306267 8.15378812 80.85390451 9.57421875 81.625 C10.3017334 82.01429687 11.02924805 82.40359375 11.77880859 82.8046875 C15.41877835 84.76350174 19.02125316 86.78806087 22.625 88.8125 C23.27509033 89.1731958 23.92518066 89.5338916 24.5949707 89.90551758 C27.57581991 91.57134313 30.40219954 93.27511227 33.2265625 95.20703125 C36.55645073 97.35973364 39.05992617 97.8484587 43 98 C45.25293127 96.13270373 45.25293127 96.13270373 45.47265625 93.22265625 C44.83864867 88.89987728 42.64166811 87.10977147 39.4375 84.4375 C38.88537842 83.95716309 38.33325684 83.47682617 37.7644043 82.98193359 C30.15484462 76.43263998 21.9905742 71.44455023 13 67 C13 66.34 13 65.68 13 65 C11.02866014 63.62464661 9.02318078 62.29788956 7 61 C2.73268768 57.98165714 -0.3861835 54.5157851 -3 50 C-3 49.34 -3 48.68 -3 48 C-1.98292969 47.50693359 -1.98292969 47.50693359 -0.9453125 47.00390625 C8.43607998 42.20926106 17.65859429 36.42067586 21.453125 26.12890625 C22.83581042 20.74630945 22.38185432 15.97966344 20 11 C17.58468905 9.14456141 14.95464265 7.93677989 12.1875 6.6875 C11.47529297 6.34138672 10.76308594 5.99527344 10.02929688 5.63867188 C1.19779099 1.44758721 -9.66845503 -1.19839047 -17.5625 5.90625 Z " fill="#F5F1ED" transform="translate(144,5)"/>
<path d="M0 0 C0 0.66 0 1.32 0 2 C1.051875 2.061875 2.10375 2.12375 3.1875 2.1875 C7 3 7 3 10 4.8125 C13.2028 9.9169625 12.15347075 14.25155559 11 20 C9.38304112 26.38499624 7.38285266 32.68074615 5.375 38.95214844 C2.5254788 47.99281684 1.93242729 55.53933184 2.3125 65 C2.63934044 74.83456551 2.63934044 74.83456551 0.2578125 79.17578125 C-3.89230712 82.9975244 -8.47016402 85.05875132 -14 86 C-15.65 83.69 -17.3 81.38 -19 79 C-19.69222656 79.15855469 -20.38445312 79.31710938 -21.09765625 79.48046875 C-27.57878804 80.64061751 -34.3875949 81.11960218 -40.5 78.5 C-47.01839876 71.98160124 -49.1527995 65.85009964 -49.23828125 56.73828125 C-49.246353 55.91482712 -49.25442474 55.09137299 -49.26274109 54.2429657 C-49.27658157 52.49199522 -49.28730389 50.74099776 -49.29516602 48.98999023 C-49.30657186 47.22818904 -49.32683767 45.46641918 -49.35668945 43.70483398 C-49.59117366 29.85192609 -49.79084675 14.23503191 -40.171875 3.1875 C-39.78515625 2.795625 -39.3984375 2.40375 -39 2 C-33.25 3.75 -33.25 3.75 -31 6 C-26.89192571 14.81008702 -27.73085946 23.87701543 -27.9375 33.375 C-27.9853939 35.85152397 -28.02865617 38.32780121 -28.05970764 40.80459595 C-28.07941442 42.33729418 -28.10898657 43.86990552 -28.14964294 45.40219116 C-28.20337434 49.18022609 -28.15388248 50.76917628 -26 54 C-25.01 54 -24.02 54 -23 54 C-22.81824219 53.443125 -22.63648438 52.88625 -22.44921875 52.3125 C-22.19785156 51.549375 -21.94648438 50.78625 -21.6875 50 C-21.44386719 49.2575 -21.20023438 48.515 -20.94921875 47.75 C-20.1917933 45.55564808 -19.38433075 43.40217697 -18.546875 41.23828125 C-16.93069674 36.95623676 -15.73130989 32.60887825 -14.5625 28.1875 C-6.90420603 0 -6.90420603 0 0 0 Z M-3.5234375 4.01953125 C-5.70639315 6.94746383 -6.83619713 10.2199904 -8.0625 13.625 C-8.32925537 14.35066162 -8.59601074 15.07632324 -8.87084961 15.82397461 C-10.39193175 20.04584046 -11.61627163 24.17494818 -12.44140625 28.58984375 C-13.52783568 33.27744486 -15.21814233 37.80520664 -16.78125 42.3515625 C-19.1475532 49.0376799 -19.1475532 49.0376799 -20 56 C-23.3125 56.25 -23.3125 56.25 -27 56 C-29.75159463 53.56810405 -29.99337603 52.08605914 -30.27709961 48.39990234 C-30.24964145 46.96157495 -30.20713729 45.52348308 -30.15234375 44.0859375 C-30.12411951 42.50391033 -30.09613245 40.92187891 -30.06835938 39.33984375 C-30.00654498 36.8648247 -29.93795971 34.39018403 -29.86303711 31.91552734 C-29.08964784 18.32739249 -29.08964784 18.32739249 -34 6 C-36.04622601 4.73776046 -36.04622601 4.73776046 -38 4 C-47.81002904 14.62880126 -47.68072254 29.61074416 -47.57641602 43.37524414 C-47.56237554 45.96041659 -47.59699281 48.54207402 -47.63476562 51.12695312 C-47.71248394 63.38481051 -47.71248394 63.38481051 -42 74 C-41.319375 74.845625 -40.63875 75.69125 -39.9375 76.5625 C-33.37971909 79.77162683 -25.01293701 78.27507946 -18 77 C-15.525 80.465 -15.525 80.465 -13 84 C-11.783125 83.443125 -10.56625 82.88625 -9.3125 82.3125 C-8.62800781 81.99925781 -7.94351563 81.68601562 -7.23828125 81.36328125 C-4.12731478 79.46846921 -2.20252146 77.95338105 0 75 C0.51981285 71.56050139 0.2719888 68.21204691 0.0625 64.75 C-0.24393234 54.48156206 1.09429576 45.79914378 4 36 C8.80569081 22.23173745 8.80569081 22.23173745 9 8 C6.85547638 4.48298127 5.42376617 4.11151741 1.4375 3.0625 C-1.82925851 2.67575167 -1.82925851 2.67575167 -3.5234375 4.01953125 Z " fill="#F6F2EB" transform="translate(228,4)"/>
<path d="M0 0 C0.99 0.33 1.98 0.66 3 1 C6.81291275 9.5419214 6.49641851 19.40307822 6.44604492 28.57202148 C6.43752326 30.93106196 6.46641963 33.28768053 6.49804688 35.64648438 C6.56361661 49.66352945 3.36775851 60.95654859 -4 73 C-4.5775 74.051875 -5.155 75.10375 -5.75 76.1875 C-8.94424238 78.7606397 -11.56511797 78.88896703 -15.6015625 78.6640625 C-18.46999396 77.86987138 -19.21386628 77.16181844 -20.8125 74.6875 C-21.59022666 73.14859405 -22.31483438 71.58228896 -23 70 C-23.44085938 69.02804688 -23.88171875 68.05609375 -24.3359375 67.0546875 C-25.20938563 65.12098441 -26.06128876 63.17733899 -26.88671875 61.22265625 C-27.79632786 58.85207038 -27.79632786 58.85207038 -30 58 C-31.71283936 63.26412631 -33.06018344 68.24019552 -33.6875 73.75 C-34.39883219 78.11077561 -35.48258343 79.99398281 -39 82.6875 C-42.54366197 85 -42.54366197 85 -45 85 C-48.73339876 81.09690129 -50.00724941 78.7307957 -49.984375 73.26953125 C-49.61600625 69.39492096 -49.02166556 65.55657982 -48.41015625 61.71386719 C-47.96292493 58.75468662 -47.59978281 55.79254588 -47.25 52.8203125 C-47.00023414 50.73434695 -46.75023703 48.64840908 -46.5 46.5625 C-46.32307617 45.0609436 -46.32307617 45.0609436 -46.14257812 43.52905273 C-45.9637207 42.12441772 -45.9637207 42.12441772 -45.78125 40.69140625 C-45.67876953 39.85810791 -45.57628906 39.02480957 -45.47070312 38.16625977 C-45 36 -45 36 -43 33 C-42.64950432 31.07227376 -42.3647131 29.13211136 -42.125 27.1875 C-41.14552842 20.85154325 -39.56882921 17.85425468 -35.3125 13.125 C-31.68330304 11.35944472 -27.95182443 11.32025954 -24 12 C-21.21875 13.0859375 -21.21875 13.0859375 -19 15 C-18.65234375 18.1875 -18.65234375 18.1875 -18.9375 22 C-19.28918551 29.08973862 -17.99000952 34.57948849 -15 41 C-14.3381938 38.77448427 -13.69223595 36.54716917 -13.0625 34.3125 C-12.86994629 33.63203613 -12.67739258 32.95157227 -12.47900391 32.25048828 C-11.30341483 27.85405114 -10.85818719 23.95368756 -10.875 19.375 C-10.53608324 11.10748501 -5.3043589 5.88196604 0 0 Z M-4 7.6875 C-8.28528385 12.56542949 -8.71081351 16.03801554 -8.79296875 22.37890625 C-9.07438535 27.30104179 -10.30831158 31.79965499 -11.62988281 36.53149414 C-12.61146204 40.11751216 -13.22192208 43.27743608 -13 47 C-16.41738364 44.27226908 -17.73083793 40.52842949 -19.25 36.5625 C-19.52086426 35.85544922 -19.79172852 35.14839844 -20.07080078 34.41992188 C-22.309448 28.08256446 -22.37530021 22.60144102 -21 16 C-24.86074463 13.88799528 -27.56449708 13.53310496 -32 14 C-36.54841509 16.58432676 -38.62218561 20.04970972 -40 25 C-40.31851859 27.14161842 -40.51221086 29.2720287 -40.69140625 31.4296875 C-41.05302177 34.44162435 -41.72355445 37.30186665 -42.4375 40.25 C-44.69307516 49.75642408 -46.07207821 59.26900499 -46.875 69 C-46.9486377 69.71833008 -47.02227539 70.43666016 -47.09814453 71.17675781 C-47.36373951 74.99952487 -47.15581232 76.76536498 -45.0078125 80 C-44.34523437 80.66 -43.68265625 81.32 -43 82 C-40.17875477 80.87150191 -38.9400708 80.27920914 -37 78 C-35.95825836 74.54950554 -35.34206801 71.12378197 -34.72265625 67.57421875 C-33.80034582 63.0125212 -32.14107766 59.1082607 -30 55 C-29.34 55 -28.68 55 -28 55 C-27.27083333 56.45833333 -26.54166667 57.91666667 -25.8125 59.375 C-25.13380859 60.73044922 -25.13380859 60.73044922 -24.44140625 62.11328125 C-23.48670858 64.02526385 -22.53612819 65.9393083 -21.58984375 67.85546875 C-21.14769531 68.74878906 -20.70554687 69.64210938 -20.25 70.5625 C-19.84265625 71.38878906 -19.4353125 72.21507813 -19.015625 73.06640625 C-18.14779457 74.95127032 -18.14779457 74.95127032 -17 76 C-13.71062747 76.62384652 -12.12121619 76.92356843 -9 76 C-0.88768483 68.46832089 3.69333608 55.12807753 4.16113281 44.25463867 C4.18112794 42.80915255 4.19478395 41.36356909 4.203125 39.91796875 C4.21167511 38.75845451 4.21167511 38.75845451 4.22039795 37.57551575 C4.22981535 35.94415644 4.23636892 34.31277839 4.24023438 32.68139648 C4.24992805 30.20587406 4.28097658 27.7311869 4.3125 25.25585938 C4.31903248 23.66406738 4.32428199 22.07226951 4.328125 20.48046875 C4.3404718 19.74998825 4.3528186 19.01950775 4.36553955 18.26689148 C4.34273043 12.91627811 3.09902055 8.92299984 1 4 C-1.0803973 4 -2.64241535 6.33718813 -4 7.6875 Z " fill="#F7F3EB" transform="translate(290,3)"/>
<path d="M0 0 C3 0.8125 3 0.8125 5 3 C5.60852733 7.47904415 5.45465983 11.91031769 4.4934082 16.32836914 C3.59434695 21.19646774 3.81540223 26.12580092 3.8125 31.0625 C3.79413086 32.66641602 3.79413086 32.66641602 3.77539062 34.30273438 C3.76193946 41.72329117 4.55527219 48.72397424 6 56 C10.52445246 49.81055442 15.0094326 43.60281385 19.359375 37.2890625 C20.51452047 35.67735954 21.72643068 34.10560017 22.9765625 32.56640625 C25.06850824 29.91310828 26.84656421 27.18385118 28.625 24.3125 C31.78291815 19.21708185 31.78291815 19.21708185 34 17 C36.125 17.375 36.125 17.375 38 18 C39.21378685 32.32942804 33.47414922 44.76719559 27.6875 57.5 C27.41354401 58.11413757 27.13958801 58.72827515 26.85733032 59.36102295 C21.59103583 71.08699995 16.13372346 78.26393375 4 83 C-0.03483181 84.07595515 -2.22005889 84.19498528 -6.25 83.1875 C-10.37052706 79.90980802 -10.8172559 75.96071806 -12 71 C-12.33 70.34 -12.66 69.68 -13 69 C-14.43929396 55.91700601 -14.31358441 42.64179523 -14.55224609 29.49755859 C-14.60402301 26.71443081 -14.66115718 23.93145007 -14.71875 21.1484375 C-14.73232544 20.30260101 -14.74590088 19.45676453 -14.7598877 18.58529663 C-14.82945168 15.28934672 -14.927061 12.32178652 -15.65820312 9.09619141 C-15.77099609 8.40444824 -15.88378906 7.71270508 -16 7 C-11.26643132 1.34601519 -7.35594597 -0.83004838 0 0 Z M-12 5 C-13.1528995 10.48266782 -13.07257823 15.81612619 -12.9140625 21.37890625 C-12.89282318 22.26803207 -12.87158386 23.1571579 -12.84970093 24.07322693 C-12.80362382 25.95001135 -12.75471207 27.82672809 -12.703125 29.70336914 C-12.6259063 32.5293323 -12.5582869 35.3553979 -12.4921875 38.18164062 C-13.47074669 61.10916301 -13.47074669 61.10916301 -5 81 C0.25111694 82.17697449 4.50594686 81.09910024 9.125 78.5 C16.57688634 73.54750411 20.97977997 68.09591804 23.97265625 59.6953125 C25.11190111 56.70641915 26.51682463 53.95819785 28 51.125 C32.51085264 42.26317304 36.23635847 32.70879142 36.0625 22.625 C36.041875 21.42875 36.02125 20.2325 36 19 C31.6257609 22.8440283 28.87259498 27.23278475 25.8203125 32.16796875 C23.65953818 35.52968845 21.25695853 38.61459698 18.765625 41.734375 C16.23751336 44.97841206 13.91150917 48.35269347 11.578125 51.73828125 C11.05734375 52.48464844 10.5365625 53.23101562 10 54 C9.49984375 54.75667969 8.9996875 55.51335938 8.484375 56.29296875 C7.99453125 56.85628906 7.5046875 57.41960938 7 58 C6.01 58 5.02 58 4 58 C1.78231133 46.16649327 1.76422984 34.6174378 1.875 22.625 C1.88505687 20.71354639 1.8941779 18.80208762 1.90234375 16.890625 C1.9241267 12.26028651 1.95850501 7.63020206 2 3 C-2.79215798 0.60392101 -8.11360476 1.45652199 -12 5 Z " fill="#F9F5F2" transform="translate(18,5)"/>
<path d="M0 0 C2.05460188 0.82430135 3.84566553 1.70901854 5.70703125 2.91015625 C6.62742187 3.47089844 6.62742187 3.47089844 7.56640625 4.04296875 C9.71969875 6.74063295 9.00270502 9.40178407 8.95703125 12.78515625 C9.97276713 16.35217001 9.97276713 16.35217001 11.39453125 19.84765625 C17.14660117 34.67849179 16.50021341 51.89425844 10.95703125 66.78515625 C8.33166048 72.65609235 5.20488874 78.24020297 1.95703125 83.78515625 C1.29703125 83.78515625 0.63703125 83.78515625 -0.04296875 83.78515625 C-5.68197723 74.68218541 -6.12019167 67.17127084 -4.04296875 56.78515625 C-7.67296875 57.44515625 -11.30296875 58.10515625 -15.04296875 58.78515625 C-15.35427734 60.3784375 -15.35427734 60.3784375 -15.671875 62.00390625 C-17.47712286 70.51148859 -19.16142702 76.90878354 -26.04296875 82.78515625 C-30.47297133 81.57697373 -33.26300752 80.50380568 -36.04296875 76.78515625 C-36.34229921 73.95678887 -36.39182312 71.70164198 -36.16796875 68.91015625 C-36.11842041 68.16072754 -36.06887207 67.41129883 -36.01782227 66.63916016 C-35.40663049 60.02316667 -33.36478994 54.8506252 -30.3203125 48.93359375 C-28.85653851 45.32563708 -28.87718345 42.64426966 -29.04296875 38.78515625 C-28.35546875 36.03515625 -28.35546875 36.03515625 -27.04296875 33.78515625 C-26.25277344 33.41261719 -25.46257812 33.04007813 -24.6484375 32.65625 C-20.90348748 29.96684811 -20.32715962 26.89682405 -19.04296875 22.59765625 C-15.82140042 12.80568957 -13.02493829 6.58941669 -4.2265625 0.71875 C-2.04296875 -0.21484375 -2.04296875 -0.21484375 0 0 Z M-1.04296875 1.78515625 C-9.33973739 5.98885236 -12.71143884 11.24039899 -16.04296875 19.78515625 C-17.06150763 22.94041255 -18.03551952 26.08560764 -18.890625 29.2890625 C-20.34914489 32.4483649 -22.01974583 33.1937317 -25.04296875 34.78515625 C-26.19867844 37.09657562 -26.14206339 38.52548138 -26.23046875 41.09765625 C-26.61086055 45.68859182 -27.93977584 48.80096245 -30.10546875 52.84765625 C-32.82905066 58.3538857 -33.64165389 62.86608118 -33.66796875 68.91015625 C-33.67836182 69.64500244 -33.68875488 70.37984863 -33.69946289 71.13696289 C-33.61173355 74.48042563 -33.49039903 76.31946351 -31.12890625 78.77734375 C-29.1289371 79.93016691 -29.1289371 79.93016691 -27.04296875 79.78515625 C-22.90642208 77.71688291 -20.97290853 74.03882335 -19.55859375 69.796875 C-19.12522609 68.35888231 -18.70351914 66.91732883 -18.29296875 65.47265625 C-18.07253906 64.73208984 -17.85210937 63.99152344 -17.625 63.22851562 C-17.08741021 61.41707178 -16.5637543 59.60150258 -16.04296875 57.78515625 C-11.42296875 56.79515625 -6.80296875 55.80515625 -2.04296875 54.78515625 C-2.37296875 56.76515625 -2.70296875 58.74515625 -3.04296875 60.78515625 C-3.70553899 68.32325049 -2.96975987 73.28140846 0.95703125 79.78515625 C11.32746365 67.63127369 14.15507639 50.50070502 13.18603516 34.93261719 C12.45907951 28.11566427 10.421993 21.42648205 7.87109375 15.0859375 C6.95703125 12.78515625 6.95703125 12.78515625 6.20703125 9.22265625 C4.66430466 4.98015812 2.84987597 3.90083273 -1.04296875 1.78515625 Z " fill="#F4EFE6" transform="translate(93.04296875,5.21484375)"/>
<path d="M0 0 C5.75 1.75 5.75 1.75 8 4 C12.10807429 12.81008702 11.26914054 21.87701543 11.0625 31.375 C11.0146061 33.85152397 10.97134383 36.32780121 10.94029236 38.80459595 C10.92058558 40.33729418 10.89101343 41.86990552 10.85035706 43.40219116 C10.79662566 47.18022609 10.84611752 48.76917628 13 52 C13.99 52 14.98 52 16 52 C16.18175781 51.443125 16.36351562 50.88625 16.55078125 50.3125 C18.24843611 45.15859396 20.05741389 40.06617628 22 35 C22.5259375 33.5459375 22.5259375 33.5459375 23.0625 32.0625 C24 30 24 30 26 29 C25.54939339 31.10583487 25.08924044 33.20962872 24.625 35.3125 C24.36976563 36.48425781 24.11453125 37.65601563 23.8515625 38.86328125 C23 42 23 42 21 45 C20.33386665 47.27538323 20.33386665 47.27538323 19.875 49.6875 C19.70742187 50.49574219 19.53984375 51.30398437 19.3671875 52.13671875 C19.24601562 52.75160156 19.12484375 53.36648437 19 54 C15.75 54.8125 15.75 54.8125 12 55 C8.84754631 52.17636817 8.05458095 50.50076793 7.59350586 46.27050781 C7.61429818 44.83096211 7.65589271 43.39161341 7.71484375 41.953125 C7.72761856 41.18248718 7.74039337 40.41184937 7.7535553 39.61785889 C7.79564264 37.16105097 7.86394381 34.70605312 7.9375 32.25 C8.75421213 18.24140597 8.75421213 18.24140597 5 5 C2.97020863 3.76699 2.97020863 3.76699 1 3 C-8.71326252 13.74723855 -7.64125178 30.8761241 -7.75 44.5 C-7.77824438 46.30601703 -7.80818314 48.11200838 -7.83984375 49.91796875 C-7.91268777 54.27859801 -7.96286814 58.6389265 -8 63 C-8.66 63 -9.32 63 -10 63 C-10.10040413 57.73882338 -10.17217623 52.47822883 -10.21972656 47.21630859 C-10.2395907 45.43398297 -10.2666916 43.65172025 -10.30175781 41.86962891 C-10.56844369 27.94705716 -10.85080019 12.30388933 -1.171875 1.1875 C-0.78515625 0.795625 -0.3984375 0.40375 0 0 Z " fill="#FAF7F2" transform="translate(189,6)"/>
<path d="M0 0 C0.99 0.33 1.98 0.66 3 1 C7.14602883 10.23057855 6.35282022 20.87653558 6.1875 30.75 C6.17241303 32.33332048 6.15873178 33.91665501 6.14648438 35.5 C6.11382574 39.33368777 6.06227063 43.16668359 6 47 C5.34 47 4.68 47 4 47 C3.36049826 37.23617882 2.82864746 27.53602813 3.125 17.74829102 C3.20828077 13.06085606 2.45483562 9.3987383 1 5 C0.236875 5.763125 -0.52625 6.52625 -1.3125 7.3125 C-4 10 -4 10 -5.64453125 11.33203125 C-7.55843262 13.6871779 -7.33543006 15.35977092 -7.375 18.375 C-7.87521853 28.16816731 -10.56428723 37.53762493 -13 47 C-16 46 -16 46 -16.99902344 44.42456055 C-17.94338405 42.18773364 -18.86982925 39.95053648 -19.75 37.6875 C-20.22675171 36.47247803 -20.22675171 36.47247803 -20.71313477 35.23291016 C-23.21332729 28.39077763 -23.38763149 23.21568375 -22 16 C-25.3 15.34 -28.6 14.68 -32 14 C-31.67 13.34 -31.34 12.68 -31 12 C-26.03740031 11.70808237 -22.86633451 11.71361567 -19 15 C-18.65234375 18.1875 -18.65234375 18.1875 -18.9375 22 C-19.28918551 29.08973862 -17.99000952 34.57948849 -15 41 C-14.3381938 38.77448427 -13.69223595 36.54716917 -13.0625 34.3125 C-12.86994629 33.63203613 -12.67739258 32.95157227 -12.47900391 32.25048828 C-11.30341483 27.85405114 -10.85818719 23.95368756 -10.875 19.375 C-10.53608324 11.10748501 -5.3043589 5.88196604 0 0 Z " fill="#F7F3F0" transform="translate(290,3)"/>
<path d="M0 0 C4.05191622 0.62337173 6.91762392 2.33794793 10 5 C10.01421005 7.33329006 10.01201495 9.6666976 10 12 C11.01573588 15.56701376 11.01573588 15.56701376 12.4375 19.0625 C18.18956992 33.89333554 17.54318216 51.10910219 12 66 C9.37462923 71.8709361 6.24785749 77.45504672 3 83 C2.34 83 1.68 83 1 83 C-4.54232238 74.05310815 -5.26885718 66.20985733 -3 56 C-3.66 55.67 -4.32 55.34 -5 55 C-3.02 54.505 -3.02 54.505 -1 54 C-1.03480469 55.14597656 -1.06960937 56.29195312 -1.10546875 57.47265625 C-1.13362703 59.00258939 -1.16092499 60.53253854 -1.1875 62.0625 C-1.21263672 62.81466797 -1.23777344 63.56683594 -1.26367188 64.34179688 C-1.33282151 69.66631856 -0.40669334 73.24346434 2 78 C11.54643651 64.63498889 14.40553835 48.14450876 13 32 C11.97966897 25.92855231 10.20428014 20.00852657 7.91796875 14.296875 C7 12 7 12 6.1875 8.5 C4.84101523 4.53141331 3.13028019 2.71840122 0 0 Z " fill="#F6F5F5" transform="translate(92,6)"/>
<path d="M0 0 C2.95517849 3.23222647 2.42533432 6.15701086 2.2734375 10.3984375 C2 13.1875 2 13.1875 1.4934082 15.51586914 C0.59434695 20.38396774 0.81540223 25.31330092 0.8125 30.25 C0.79413086 31.85391602 0.79413086 31.85391602 0.77539062 33.49023438 C0.76193946 40.91079117 1.55527219 47.91147424 3 55.1875 C3.99 53.8675 4.98 52.5475 6 51.1875 C7.485 51.6825 7.485 51.6825 9 52.1875 C7.35 54.1675 5.7 56.1475 4 58.1875 C2.68 57.8575 1.36 57.5275 0 57.1875 C-3.64100315 39.30757381 -2.67148611 20.27536752 -1 2.1875 C-8.28336714 1.76583474 -8.28336714 1.76583474 -15 4.1875 C-16.34410262 6.20485205 -16.34410262 6.20485205 -17 8.1875 C-17.33 7.1975 -17.66 6.2075 -18 5.1875 C-12.22867733 -0.73569958 -8.08945618 -2.19089438 0 0 Z " fill="#FDF6E9" transform="translate(21,5.8125)"/>
<path d="M0 0 C1.74323549 5.22970647 1.2270729 10.77615441 1.25 16.25 C1.270625 17.46558594 1.29125 18.68117188 1.3125 19.93359375 C1.34114626 26.50074976 1.00616409 31.16356439 -2 37 C-1.88296239 40.84760338 -1.88296239 40.84760338 0 44 C0.1090842 45.74497165 0.15582652 47.49392344 0.17578125 49.2421875 C0.19962891 50.30824219 0.22347656 51.37429687 0.24804688 52.47265625 C0.29086404 54.7328834 0.32219675 56.99335855 0.34179688 59.25390625 C0.36951172 60.32253906 0.39722656 61.39117187 0.42578125 62.4921875 C0.44036377 63.47558105 0.45494629 64.45897461 0.4699707 65.47216797 C0.77492281 68.15909136 0.77492281 68.15909136 3.03588867 69.84423828 C3.68404541 70.22563965 4.33220215 70.60704102 5 71 C2.625 71.125 2.625 71.125 0 71 C-2.57980717 68.42019283 -2.27412336 67.31834159 -2.34375 63.73046875 C-2.37339844 62.67666016 -2.40304688 61.62285156 -2.43359375 60.53710938 C-2.45550781 59.43173828 -2.47742188 58.32636719 -2.5 57.1875 C-2.54354414 55.01413505 -2.59533861 52.84091631 -2.65625 50.66796875 C-2.68428711 49.21813599 -2.68428711 49.21813599 -2.71289062 47.73901367 C-3.0168977 44.8387965 -3.89407975 42.67983768 -5 40 C-4.74294681 36.91536171 -4.22408129 34.50118182 -2.9609375 31.67602539 C-1.87377065 28.64847562 -1.8002495 26.3913764 -1.875 23.18359375 C-1.89046875 22.08982422 -1.9059375 20.99605469 -1.921875 19.86914062 C-1.94765625 18.73669922 -1.9734375 17.60425781 -2 16.4375 C-2.05107449 14.1863917 -2.09312089 11.9350557 -2.125 9.68359375 C-2.14820312 8.68900146 -2.17140625 7.69440918 -2.1953125 6.66967773 C-1.99476395 3.92842977 -1.40710441 2.3325941 0 0 Z " fill="#FAF9F6" transform="translate(122,18)"/>
<path d="M0 0 C0.66 0 1.32 0 2 0 C4.37967619 4.69448999 4.32794907 9.04210257 4.37890625 14.18359375 C4.39590073 15.07554947 4.4128952 15.96750519 4.43040466 16.88648987 C4.48337351 19.73675455 4.52366368 22.58701068 4.5625 25.4375 C3.87284417 46.14925094 3.87284417 46.14925094 8 66 C8.125 69.3125 8.125 69.3125 8 72 C-2.19426571 61.80573429 1.69033187 35.85748342 1.44775391 22.49755859 C1.39597699 19.71443081 1.33884282 16.93145007 1.28125 14.1484375 C1.26767456 13.30260101 1.25409912 12.45676453 1.2401123 11.58529663 C1.15611852 7.60566101 0.97200272 3.88505944 0 0 Z " fill="#FBFAF7" transform="translate(2,12)"/>
<path d="M0 0 C0 0.66 0 1.32 0 2 C1.051875 2.061875 2.10375 2.12375 3.1875 2.1875 C7.72732031 3.15500269 9.27332387 4.28180527 12 8 C12.3125 11.3125 12.3125 11.3125 12 14 C11.01 13.67 10.02 13.34 9 13 C8.67 10.69 8.34 8.38 8 6 C4.7 5.34 1.4 4.68 -2 4 C-6.47979454 11.05273776 -9.55998473 19.04353336 -11.125 27.25 C-11.41375 28.4875 -11.7025 29.725 -12 31 C-12.99 31.33 -13.98 31.66 -15 32 C-8.2845787 0 -8.2845787 0 0 0 Z " fill="#EBE6E2" transform="translate(228,4)"/>
<path d="M0 0 C6.75 1.125 6.75 1.125 10 4 C9.67339377 7.0483248 8.99477806 8.00507689 6.75 10.1875 C4 12 4 12 -1 13 C-0.67 8.71 -0.34 4.42 0 0 Z " fill="#FBF8F3" transform="translate(136,20)"/>
<path d="M0 0 C0.66 0.33 1.32 0.66 2 1 C1.38511719 1.67095703 1.38511719 1.67095703 0.7578125 2.35546875 C-4.1993318 7.9174321 -5.97152813 11.95903164 -6.65234375 19.32421875 C-7.3417524 24.63034153 -8.72159854 29.80996799 -10 35 C-10.1340625 35.76699219 -10.268125 36.53398438 -10.40625 37.32421875 C-10.70015625 38.15373047 -10.70015625 38.15373047 -11 39 C-12.485 39.495 -12.485 39.495 -14 40 C-13.71815415 37.39442509 -13.42497289 34.79099602 -13.125 32.1875 C-13.04636719 31.44951172 -12.96773437 30.71152344 -12.88671875 29.95117188 C-12.45539714 26.28493819 -12.0803217 24.12048255 -10 21 C-9.64950432 19.07227376 -9.3647131 17.13211136 -9.125 15.1875 C-8.14360834 8.83912269 -6.77134307 5.30945256 -1.75 1.125 C-0.88375 0.568125 -0.88375 0.568125 0 0 Z " fill="#E8E3DB" transform="translate(257,15)"/>
<path d="M0 0 C0.99 0 1.98 0 3 0 C2.96519531 1.14597656 2.93039063 2.29195312 2.89453125 3.47265625 C2.86637297 5.00258939 2.83907501 6.53253854 2.8125 8.0625 C2.78736328 8.81466797 2.76222656 9.56683594 2.73632812 10.34179688 C2.66717849 15.66631856 3.59330666 19.24346434 6 24 C6.31453125 23.46890625 6.6290625 22.9378125 6.953125 22.390625 C9.31955588 18.48458848 11.55305542 15.06395074 15 12 C13.3341708 18.16356805 10.12194714 23.48259656 7 29 C6.34 29 5.68 29 5 29 C-0.54232238 20.05310815 -1.26885718 12.20985733 1 2 C0.34 1.67 -0.32 1.34 -1 1 C-0.67 0.67 -0.34 0.34 0 0 Z " fill="#FBF9F7" transform="translate(88,60)"/>
<path d="M0 0 C-3.00617269 3.00617269 -5.82381598 2.59585316 -10 3 C-10.31130859 4.59328125 -10.31130859 4.59328125 -10.62890625 6.21875 C-12.43415411 14.72633234 -14.11845827 21.12362729 -21 27 C-21.66 26.01 -22.32 25.02 -23 24 C-22.23171875 23.52691406 -21.4634375 23.05382812 -20.671875 22.56640625 C-16.58216304 18.63813029 -15.92844708 13.87666288 -14.6796875 8.46679688 C-13.04868684 2.62877394 -13.04868684 2.62877394 -9.89648438 0.73876953 C-6.06833654 -0.62587993 -3.92805552 -1.30935184 0 0 Z " fill="#FCF5E6" transform="translate(88,61)"/>
<path d="M0 0 C0.33 0 0.66 0 1 0 C1.71606319 9.02239616 -0.63922591 16.44229957 -3.37792969 24.91503906 C-4.01826044 27.06120257 -4.49994409 29.2107294 -4.9765625 31.3984375 C-6 35 -6 35 -9 37 C-5.07725079 17.60529071 -5.07725079 17.60529071 -2.66015625 10.08984375 C-1.6100083 6.76541088 -0.81576877 3.38857796 0 0 Z " fill="#F3EDEB" transform="translate(238,14)"/>
<path d="M0 0 C0.93423645 3.01031744 1.04449911 3.86650268 0 7 C-0.02472352 8.71616533 0.00874306 10.43349702 0.078125 12.1484375 C0.10390625 13.15390625 0.1296875 14.159375 0.15625 15.1953125 C0.21853518 17.30781814 0.29655588 19.41992091 0.390625 21.53125 C0.54572307 29.1116684 0.54572307 29.1116684 -1.13085938 31.84082031 C-2.515625 33.2265625 -2.515625 33.2265625 -5 35 C-5.66 34.67 -6.32 34.34 -7 34 C-6.34128906 33.39929688 -5.68257812 32.79859375 -5.00390625 32.1796875 C-2.07611463 27.53402984 -2.67900168 23.48618431 -2.9375 18.125 C-3.24538255 11.2229165 -3.30968135 6.17234081 0 0 Z " fill="#FBFAF9" transform="translate(230,50)"/>
<path d="M0 0 C2.56052599 2.8005753 2.29811565 4.14465839 2.3125 7.875 C2.23205586 9.64706945 2.13513292 11.4187602 2 13.1875 C0.03553095 11.5530205 -0.92317791 10.72320606 -1.29296875 8.14453125 C-1.1953125 6.15885417 -1.09765625 4.17317708 -1 2.1875 C-8.28336714 1.76583474 -8.28336714 1.76583474 -15 4.1875 C-16.34410262 6.20485205 -16.34410262 6.20485205 -17 8.1875 C-17.33 7.1975 -17.66 6.2075 -18 5.1875 C-12.22867733 -0.73569958 -8.08945618 -2.19089438 0 0 Z " fill="#F6F1E2" transform="translate(21,5.8125)"/>
<path d="M0 0 C0.66 0.66 1.32 1.32 2 2 C-8.89970019 9.24802398 -8.89970019 9.24802398 -15.125 8.75 C-17.67648462 8.08439532 -19.72512103 7.31243018 -22 6 C-21.34 4.68 -20.68 3.36 -20 2 C-19.01 3.485 -19.01 3.485 -18 5 C-12.82770309 6.31221063 -8.48570155 5.03317555 -3.9375 2.5 C-2.61342446 1.68518428 -1.29641299 0.85814571 0 0 Z " fill="#F4F1ED" transform="translate(31,80)"/>
<path d="M0 0 C0.66 0 1.32 0 2 0 C2.0093457 0.65073486 2.01869141 1.30146973 2.02832031 1.97192383 C2.08199493 4.91955506 2.1656455 7.86559393 2.25 10.8125 C2.26417969 11.83666016 2.27835937 12.86082031 2.29296875 13.91601562 C2.32519531 14.89892578 2.35742188 15.88183594 2.390625 16.89453125 C2.41157227 17.80050049 2.43251953 18.70646973 2.45410156 19.63989258 C2.80139584 22.17474993 2.80139584 22.17474993 5.03808594 23.8190918 C5.68551758 24.2087915 6.33294922 24.59849121 7 25 C4.625 25.125 4.625 25.125 2 25 C0 23 0 23 -0.22705078 20.66162109 C-0.21657715 19.70852051 -0.20610352 18.75541992 -0.1953125 17.7734375 C-0.18886719 16.7421875 -0.18242188 15.7109375 -0.17578125 14.6484375 C-0.15902344 13.56820312 -0.14226562 12.48796875 -0.125 11.375 C-0.11597656 10.28703125 -0.10695313 9.1990625 -0.09765625 8.078125 C-0.07403409 5.38519848 -0.04109556 2.69270745 0 0 Z " fill="#FEFEFE" transform="translate(120,64)"/>
<path d="M0 0 C0.66 0 1.32 0 2 0 C0.70441828 3.62635865 -0.82709716 6.32752736 -3.25 9.3125 C-5.69256305 12.36442364 -8.09907505 15.4297882 -10.4375 18.5625 C-11.17806641 19.55443359 -11.17806641 19.55443359 -11.93359375 20.56640625 C-12.28550781 21.03949219 -12.63742188 21.51257813 -13 22 C-13.66 21.67 -14.32 21.34 -15 21 C-4.40217391 4.89130435 -4.40217391 4.89130435 0 0 Z " fill="#FDFAF8" transform="translate(43,35)"/>
<path d="M0 0 C0.66 0 1.32 0 2 0 C3.14814997 2.29629994 3.30769809 4.07698086 3.5625 6.625 C3.64628906 7.44226562 3.73007812 8.25953125 3.81640625 9.1015625 C3.87699219 9.72804688 3.93757813 10.35453125 4 11 C4.99 9.68 5.98 8.36 7 7 C7.99 7.33 8.98 7.66 10 8 C8.35 9.98 6.7 11.96 5 14 C3.68 13.67 2.36 13.34 1 13 C0.1276588 10.00519083 -0.10829766 7.36424089 -0.0625 4.25 C-0.05347656 3.45078125 -0.04445313 2.6515625 -0.03515625 1.828125 C-0.02355469 1.22484375 -0.01195313 0.6215625 0 0 Z " fill="#F0EADF" transform="translate(20,50)"/>
<path d="M0 0 C0.66 0.33 1.32 0.66 2 1 C1.401875 1.825 0.80375 2.65 0.1875 3.5 C-3.38110639 8.86556422 -5.20253657 14.62029257 -6 21 C-6.99 20.67 -7.98 20.34 -9 20 C-7.47712944 11.98489179 -5.53526308 6.09058073 0 0 Z " fill="#F4EFE4" transform="translate(189,6)"/>
<path d="M0 0 C1 3 1 3 -0.5 6.3125 C-2.52121663 11.28132422 -1.64298803 14.07103591 0 19 C-3 18 -3 18 -4.25 15.8125 C-5.75496199 10.16889253 -3.75562382 5.93715934 -1 1 C-0.67 0.67 -0.34 0.34 0 0 Z " fill="#F6F3E9" transform="translate(122,45)"/>
<path d="M0 0 C0.20568145 5.75908058 -0.16918021 10.50754063 -2 16 C-2.99 16.33 -3.98 16.66 -5 17 C-4.71943562 14.35254679 -4.42614369 11.70762036 -4.125 9.0625 C-4.04636719 8.30775391 -3.96773437 7.55300781 -3.88671875 6.77539062 C-3.66116192 4.84080701 -3.33741026 2.91823981 -3 1 C-1 0 -1 0 0 0 Z " fill="#F4F1E8" transform="translate(248,38)"/>
<path d="M0 0 C1.2077558 3.62326739 0.54311128 4.64146369 -1 8 C0.32 8 1.64 8 3 8 C3.33 7.01 3.66 6.02 4 5 C4.33 6.65 4.66 8.3 5 10 C2.03 10 -0.94 10 -4 10 C-3.52449439 8.51965236 -3.04448784 7.04074979 -2.5625 5.5625 C-2.29566406 4.73878906 -2.02882813 3.91507813 -1.75390625 3.06640625 C-1 1 -1 1 0 0 Z " fill="#FFFFFF" transform="translate(86,38)"/>
<path d="M0 0 C0.66 0 1.32 0 2 0 C2.38909985 1.45463481 2.76088029 2.91391207 3.125 4.375 C3.43824219 5.59316406 3.43824219 5.59316406 3.7578125 6.8359375 C3.83773437 7.55007812 3.91765625 8.26421875 4 9 C3.34 9.66 2.68 10.32 2 11 C0.68 11 -0.64 11 -2 11 C-1.85957123 9.35369672 -1.71250671 7.70795821 -1.5625 6.0625 C-1.48128906 5.14597656 -1.40007812 4.22945312 -1.31640625 3.28515625 C-1 1 -1 1 0 0 Z " fill="#FBF0E4" transform="translate(87,35)"/>
<path d="M0 0 C3.63134037 -0.21360826 6.47736198 -0.17791933 9.9375 1 C12 3 12 3 12.3046875 4.98046875 C12.31179924 6.9895353 12.16412818 8.99763616 12 11 C11.34 10.67 10.68 10.34 10 10 C9.375 6.9375 9.375 6.9375 9 4 C5.7 3.34 2.4 2.68 -1 2 C-0.67 1.34 -0.34 0.68 0 0 Z " fill="#FCFAF9" transform="translate(259,15)"/>
<path d="M0 0 C0.66 0 1.32 0 2 0 C1.55206979 5.85845561 1.1128416 11.48313583 -1 17 C-1.99 17.33 -2.98 17.66 -4 18 C-2.68 12.06 -1.36 6.12 0 0 Z " fill="#F9F1EC" transform="translate(105,55)"/>
<path d="M0 0 C0.33 0 0.66 0 1 0 C1.12036664 5.77759884 0.8320582 11.27959989 0 17 C-0.66 17 -1.32 17 -2 17 C-2.11116338 11.55299453 -2.00581962 6.36437132 -1 1 C-0.67 0.67 -0.34 0.34 0 0 Z " fill="#FBFAF8" transform="translate(244,54)"/>
<path d="M0 0 C0.66 0 1.32 0 2 0 C2.29132813 0.62648438 2.58265625 1.25296875 2.8828125 1.8984375 C5.47875022 7.29371523 5.47875022 7.29371523 10.3125 10.5625 C11.199375 10.706875 12.08625 10.85125 13 11 C13 11.33 13 11.66 13 12 C9.8125 12.5 9.8125 12.5 6 12 C2.77349907 8.56929015 0.96850364 4.5746342 0 0 Z " fill="#F9F8F6" transform="translate(266,69)"/>
<path d="M0 0 C1.65 0.33 3.3 0.66 5 1 C4.8125 2.8125 4.8125 2.8125 4 5 C1.4375 6.75 1.4375 6.75 -1 8 C-0.67 5.36 -0.34 2.72 0 0 Z " fill="#181818" transform="translate(138,23)"/>
<path d="M0 0 C0.66 0 1.32 0 2 0 C1.57855998 2.1490452 1.13737951 4.29422788 0.6875 6.4375 C0.44386719 7.63246094 0.20023437 8.82742187 -0.05078125 10.05859375 C-0.36402344 11.02925781 -0.67726563 11.99992187 -1 13 C-1.99 13.33 -2.98 13.66 -4 14 C-3.52525225 11.85318469 -3.04508251 9.70756772 -2.5625 7.5625 C-2.29566406 6.36753906 -2.02882813 5.17257813 -1.75390625 3.94140625 C-1 1 -1 1 0 0 Z " fill="#F0EAE7" transform="translate(294,50)"/>
<path d="M0 0 C0.99 0.33 1.98 0.66 3 1 C2.38125 1.9075 1.7625 2.815 1.125 3.75 C-0.44389611 6.14948817 -1.80443821 8.40961612 -3 11 C-3.66 11 -4.32 11 -5 11 C-3.92289822 6.69159287 -2.96052484 3.36423277 0 0 Z " fill="#EFE8D6" transform="translate(126,8)"/>
<path d="M0 0 C-0.66 0 -1.32 0 -2 0 C-2.33 0.99 -2.66 1.98 -3 3 C-5.06640625 4.38671875 -5.06640625 4.38671875 -7.5625 5.6875 C-8.80193359 6.34298828 -8.80193359 6.34298828 -10.06640625 7.01171875 C-10.70449219 7.33785156 -11.34257813 7.66398438 -12 8 C-12 7.01 -12 6.02 -12 5 C-10.13671875 3.359375 -10.13671875 3.359375 -7.6875 1.75 C-6.88699219 1.20859375 -6.08648437 0.6671875 -5.26171875 0.109375 C-3 -1 -3 -1 0 0 Z " fill="#EBE5E2" transform="translate(94,6)"/>
<path d="M0 0 C1.45970366 2.31835287 2.03077997 3.61012043 1.8125 6.375 C0.86046637 9.45080097 -0.4834697 12.1647477 -2 15 C-2.66 15 -3.32 15 -4 15 C-3.79503906 14.41992188 -3.59007812 13.83984375 -3.37890625 13.2421875 C-1.85990187 8.8378016 -0.5952849 4.64322223 0 0 Z " fill="#F7F4EE" transform="translate(65,45)"/>
<path d="M0 0 C4.21912747 0.4794463 6.79663178 1.16625119 10 4 C9.67 4.99 9.34 5.98 9 7 C8.34 7 7.68 7 7 7 C7 6.01 7 5.02 7 4 C4.69 3.67 2.38 3.34 0 3 C0 2.01 0 1.02 0 0 Z " fill="#F4E7D4" transform="translate(136,20)"/>
<path d="M0 0 C3.65316671 1.24976756 4.78065836 1.67098753 7 5 C7.125 8.1875 7.125 8.1875 7 11 C6.01 10.67 5.02 10.34 4 10 C3.67 7.69 3.34 5.38 3 3 C2.01 2.67 1.02 2.34 0 2 C0 1.34 0 0.68 0 0 Z " fill="#DACAC5" transform="translate(233,7)"/>
<path d="M0 0 C0.99 0 1.98 0 3 0 C3.2475 0.763125 3.495 1.52625 3.75 2.3125 C5.10995558 5.2364045 6.31585826 6.30004356 9 8 C8.67 8.66 8.34 9.32 8 10 C2.25 6.25 2.25 6.25 0 4 C0 2.68 0 1.36 0 0 Z " fill="#E8E5D9" transform="translate(57,78)"/>
<path d="M0 0 C3.99881788 0.61520275 6.80358226 2.60268669 10 5 C10 5.66 10 6.32 10 7 C9.01 7.33 8.02 7.66 7 8 C4.35247996 5.42215154 2.05567935 3.08351902 0 0 Z " fill="#F2ECE8" transform="translate(92,6)"/>
<path d="M0 0 C1.98 0.99 1.98 0.99 4 2 C4 5.63 4 9.26 4 13 C0.72220127 9.72220127 0.59505966 9.1639187 0.3125 4.8125 C0.24675781 3.91144531 0.18101563 3.01039062 0.11328125 2.08203125 C0.07589844 1.39496094 0.03851562 0.70789063 0 0 Z " fill="#CABEA8" transform="translate(19,6)"/>
<path d="M0 0 C0.556875 0.7115625 0.556875 0.7115625 1.125 1.4375 C3.62646962 3.52205802 5.81593418 3.64621491 9 4 C9 4.99 9 5.98 9 7 C5.28111761 6.49287967 2.26545761 5.88391785 -1 4 C-0.67 2.68 -0.34 1.36 0 0 Z " fill="#E7DFCB" transform="translate(10,82)"/>
<path d="M0 0 C0.99 0.33 1.98 0.66 3 1 C1.875 3.4375 1.875 3.4375 0 6 C-3.1875 6.8125 -3.1875 6.8125 -6 7 C-5 4 -5 4 -3 2.9375 C-2.34 2.628125 -1.68 2.31875 -1 2 C-0.67 1.34 -0.34 0.68 0 0 Z " fill="#E4DECC" transform="translate(130,83)"/>
<path d="M0 0 C0.99 0 1.98 0 3 0 C2.67 2.64 2.34 5.28 2 8 C1.01 8.33 0.02 8.66 -1 9 C-0.67 6.03 -0.34 3.06 0 0 Z " fill="#F2EACB" transform="translate(241,71)"/>
<path d="M0 0 C1.13643966 3.40931897 0.86747764 4.00335456 -0.4375 7.1875 C-0.72496094 7.90292969 -1.01242188 8.61835938 -1.30859375 9.35546875 C-1.53675781 9.89816406 -1.76492187 10.44085938 -2 11 C-2.66 11 -3.32 11 -4 11 C-3.71758359 9.53984709 -3.42373386 8.08190207 -3.125 6.625 C-2.96257812 5.81289062 -2.80015625 5.00078125 -2.6328125 4.1640625 C-2 2 -2 2 0 0 Z " fill="#FAF8F6" transform="translate(222,10)"/>
<path d="M0 0 C0.66 0 1.32 0 2 0 C1.25 2.4375 1.25 2.4375 0 5 C-1.875 5.9375 -1.875 5.9375 -4 6 C-6.25 5.0625 -6.25 5.0625 -8 4 C-6.865625 3.71125 -5.73125 3.4225 -4.5625 3.125 C-3.386875 2.75375 -2.21125 2.3825 -1 2 C-0.67 1.34 -0.34 0.68 0 0 Z " fill="#FAEEE3" transform="translate(283,75)"/>
<path d="M0 0 C0.33 0 0.66 0 1 0 C1.05399736 1.45792884 1.09279177 2.91642712 1.125 4.375 C1.14820313 5.18710937 1.17140625 5.99921875 1.1953125 6.8359375 C1 9 1 9 -1 11 C-2.41687119 6.74938644 -1.19320039 4.28148375 0 0 Z " fill="#FCFAF3" transform="translate(249,28)"/>
<path d="M0 0 C0 2.64 0 5.28 0 8 C-0.99 7.67 -1.98 7.34 -3 7 C-3 5.02 -3 3.04 -3 1 C-1 0 -1 0 0 0 Z " fill="#E6DAB4" transform="translate(248,38)"/>
<path d="M0 0 C1.25541557 3.76624671 0.37061958 5.37188934 -1 9 C-1.66 8.67 -2.32 8.34 -3 8 C-2.45276317 4.62537285 -1.9451 2.91765 0 0 Z " fill="#FBF7F4" transform="translate(86,38)"/>
<path d="M0 0 C0.99 0.33 1.98 0.66 3 1 C2.1875 3.9375 2.1875 3.9375 1 7 C0.01 7.33 -0.98 7.66 -2 8 C-1.34 5.36 -0.68 2.72 0 0 Z " fill="#F0E6E1" transform="translate(51,41)"/>
<path d="M0 0 C6.15234375 0.5859375 6.15234375 0.5859375 8 1 C8.33 1.66 8.66 2.32 9 3 C6.03 2.67 3.06 2.34 0 2 C0 1.34 0 0.68 0 0 Z " fill="#FDF7EF" transform="translate(140,5)"/>
<path d="M0 0 C0.33 0 0.66 0 1 0 C1 1.65 1 3.3 1 5 C2.98 5.66 4.96 6.32 7 7 C7 7.33 7 7.66 7 8 C4.625 8.125 4.625 8.125 2 8 C0 6 0 6 -0.125 2.875 C-0.08375 1.92625 -0.0425 0.9775 0 0 Z " fill="#F4F2F0" transform="translate(120,81)"/>
<path d="M0 0 C1.4606285 2.64738916 2 3.89448334 2 7 C0.68 7 -0.64 7 -2 7 C-1.34 4.69 -0.68 2.38 0 0 Z " fill="#212121" transform="translate(87,39)"/>
</svg>
